<svg xmlns="http://www.w3.org/2000/svg" xml:space="preserve" x="0px" y="0px" baseProfile="tiny" overflow="visible" version="1.2" viewBox="0 0 2048 661"><path fill="#FFF" d="M648.134 339.995c0 132.659-107.552 240.202-240.202 240.202-132.662 0-240.202-107.543-240.202-240.202C167.73 207.343 275.27 99.8 407.932 99.8c132.649 0 240.202 107.543 240.202 240.195z"/><path fill="#003764" d="M520.672 323.253c-38.207-25.966-87.121-15.392-112.84 23.648-21.393 32.632-53.772 36.692-66.244 36.692-40.909 0-68.821-28.755-77.117-58.494 0 0-.406-1.506-.512-1.846-3.261-12.431-4.086-18.335-4.086-31.526 0-71.079 72.984-150.257 178.012-150.257 107.599 0 169.179 81.908 185.091 127.443a55.514 55.514 0 0 1-.837-2.421C591.614 177.445 507.185 113.44 407.726 113.44c-125.053 0-226.496 101.389-226.496 226.549 0 111.844 80.668 207.571 192.587 207.571 89.217 0 149.201-50.02 176.676-118.991 15.108-37.738 4.438-82.049-29.821-105.316z"/><path fill="#E4032E" d="M624.364 273.311c-13.272-44.423-75.249-131.841-186.477-131.841-105.028 0-178.012 79.179-178.012 150.257 0 13.191.825 19.094 4.086 31.526-1.365-5.444-2.062-10.863-2.062-16.164 0-74.046 74.121-125.338 150.326-125.338 103.186 0 186.811 83.629 186.811 186.771 0 80.852-46.541 150.885-114.127 184.5v.062c87.159-31.566 149.398-115.058 149.398-213.096-.001-23.203-3.112-43.669-9.943-66.677z"/><g fill="#575757"><path d="M845.356 370.57v-31.826H758.9v-23.806h200.476v23.806H872.67v31.826h70.668v76.182h-27.064v-52.374H772.433V370.57h72.923zm97.481-138.077v64.904h-27.064V256.3H774.438v-23.807h168.399zM987.44 390.118v-24.057h200.476v24.057h-86.705v56.133h-27.317v-56.133H987.44zm16.037-155.871h168.402v97.481h-168.402v-97.481zm141.587 23.807h-114.773v49.868h114.773v-49.868zM1302.435 406.157v-62.651h27.317v62.651h86.705v24.057h-200.476v-24.057h86.454zm-72.421-143.091V239.26h172.41v23.806h-75.428l82.194 85.702-19.295 15.287-73.675-77.182-73.675 77.182-19.297-15.287 82.196-85.702h-75.43zM1443.769 257.552v-23.306h125.297v23.306h-53.377l55.632 67.911-19.046 15.538-44.605-55.632-44.354 59.391-19.796-16.039 55.381-71.168h-55.132zm173.412 142.338c0 7.355-1.505 14.245-4.511 20.675s-7.017 12.069-12.029 16.916c-5.181 4.843-11.238 8.685-18.167 11.528-6.936 2.839-14.245 4.258-21.929 4.258-7.686 0-15.034-1.419-22.051-4.258-7.017-2.843-13.118-6.685-18.294-11.528-5.013-4.847-9.023-10.486-12.03-16.916-3.007-6.43-4.511-13.32-4.511-20.675 0-7.348 1.505-14.284 4.511-20.799 3.007-6.515 7.017-12.193 12.03-17.04 5.176-4.845 11.277-8.685 18.294-11.528 7.017-2.839 14.365-4.261 22.051-4.261 7.684 0 14.993 1.422 21.929 4.261 6.929 2.843 12.987 6.683 18.167 11.528 5.013 4.847 9.023 10.525 12.029 17.04 3.007 6.515 4.511 13.451 4.511 20.799zm-26.564-.25c0-8.183-3.007-15.243-9.023-21.174-6.014-5.929-13.118-8.896-21.301-8.896-8.188 0-15.246 2.968-21.174 8.896-5.931 5.931-8.896 12.991-8.896 21.174 0 8.188 2.965 15.204 8.896 21.05 5.929 5.848 12.987 8.772 21.174 8.772 8.183 0 15.287-2.924 21.301-8.772 6.016-5.846 9.023-12.863 9.023-21.05zm18.043-55.883v-47.361h-40.598V273.09h40.598v-45.107h27.064v115.774h-27.064zM1738.466 226.73l68.913 86.704-19.545 15.538-49.367-63.149-48.866 64.904-20.049-15.538 68.914-88.459zm-45.61 115.021h171.409v59.644h-144.343v18.545h146.848v22.053h-173.914v-60.897h144.343v-18.043h-144.343v-21.302zm144.343-113.768h27.066v103.493h-27.066V227.983z"/></g></svg>